<svg xmlns="http://www.w3.org/2000/svg" viewBox="0 0 1600 1000" role="img" aria-labelledby="title desc">
  <title id="title">Smoke Valley product wall brand graphic</title>
  <desc id="desc">Polished product-wall style graphic for the Smoke Valley website.</desc>
  <rect width="1600" height="1000" fill="#f7f8f7"/>
  <path d="M0 0h1600v1000H0z" fill="#fff"/>
  <path d="M0 0h1600v1000H0z" fill="url(#wash)"/>
  <g opacity=".95">
    <rect x="178" y="120" width="1244" height="660" rx="38" fill="#ffffff" stroke="#d9dfdc" stroke-width="8"/>
    <rect x="238" y="184" width="260" height="200" rx="26" fill="#eef4f1" stroke="#d9dfdc" stroke-width="4"/>
    <rect x="536" y="184" width="260" height="200" rx="26" fill="#f2fbf7" stroke="#d9dfdc" stroke-width="4"/>
    <rect x="834" y="184" width="260" height="200" rx="26" fill="#eef4f1" stroke="#d9dfdc" stroke-width="4"/>
    <rect x="238" y="430" width="260" height="200" rx="26" fill="#f2fbf7" stroke="#d9dfdc" stroke-width="4"/>
    <rect x="536" y="430" width="260" height="200" rx="26" fill="#eef4f1" stroke="#d9dfdc" stroke-width="4"/>
    <rect x="834" y="430" width="260" height="200" rx="26" fill="#f2fbf7" stroke="#d9dfdc" stroke-width="4"/>
    <rect x="1142" y="184" width="210" height="446" rx="28" fill="#eef4f1" stroke="#d9dfdc" stroke-width="4"/>
  </g>
  <g fill="#166345">
    <rect x="288" y="252" width="160" height="26" rx="13"/>
    <rect x="586" y="252" width="160" height="26" rx="13"/>
    <rect x="884" y="252" width="160" height="26" rx="13"/>
    <rect x="288" y="498" width="160" height="26" rx="13"/>
    <rect x="586" y="498" width="160" height="26" rx="13"/>
    <rect x="884" y="498" width="160" height="26" rx="13"/>
    <rect x="1190" y="272" width="114" height="28" rx="14"/>
    <rect x="1190" y="340" width="114" height="28" rx="14"/>
    <rect x="1190" y="408" width="114" height="28" rx="14"/>
  </g>
  <g fill="#dff5eb">
    <circle cx="344" cy="316" r="38"/>
    <circle cx="642" cy="316" r="38"/>
    <circle cx="940" cy="316" r="38"/>
    <circle cx="344" cy="562" r="38"/>
    <circle cx="642" cy="562" r="38"/>
    <circle cx="940" cy="562" r="38"/>
  </g>
  <text x="800" y="858" text-anchor="middle" font-family="Arial, sans-serif" font-size="48" font-weight="900" fill="#111817" letter-spacing="4">SMOKE VALLEY</text>
  <text x="800" y="910" text-anchor="middle" font-family="Arial, sans-serif" font-size="26" font-weight="700" fill="#6b7773">Vapes • Hookah • Glass • Accessories • CBD/Hemp • Kratom</text>
  <defs>
    <linearGradient id="wash" x1="0" x2="1" y1="0" y2="1">
      <stop offset="0" stop-color="#f2fbf7"/>
      <stop offset=".52" stop-color="#ffffff"/>
      <stop offset="1" stop-color="#dff5eb"/>
    </linearGradient>
  </defs>
</svg>
